<svg data-v-fde0c5aa="" xmlns="http://www.w3.org/2000/svg" viewBox="0 0 300 300" class="iconLeftSlogan"><!----><defs data-v-fde0c5aa=""><!----></defs><rect data-v-fde0c5aa="" fill="transparent" x="0" y="0" width="300px" height="300px" class="logo-background-square"></rect><defs data-v-fde0c5aa=""><!----></defs><g data-v-fde0c5aa="" id="909c7361-aed0-4587-a83b-bda12ed03ad3" fill="#000000" transform="matrix(1.8665562586147786,0,0,1.8665562586147786,102.27599442259213,124.62890896109516)"><path d="M0.21 6.40L3.12 6.40L3.78 10.27L4.02 11.73L4.14 11.73L4.40 10.27L5.19 6.62L8.13 6.62L8.91 10.27L9.19 11.74L9.32 11.74L9.54 10.27L10.21 6.40L12.41 6.40L10.53 13.64L7.44 13.64L6.71 10.37L6.45 8.63L6.32 8.63L6.02 10.38L5.22 13.64L2.08 13.64L0.21 6.40ZM13.57 13.64L13.57 2.69L16.30 2.69L16.30 7.55L16.30 7.55Q16.58 7.31 16.88 7.08L16.88 7.08L16.88 7.08Q17.18 6.85 17.50 6.67L17.50 6.67L17.50 6.67Q17.82 6.49 18.17 6.37L18.17 6.37L18.17 6.37Q18.53 6.26 18.92 6.26L18.92 6.26L18.92 6.26Q19.39 6.26 19.80 6.44L19.80 6.44L19.80 6.44Q20.21 6.61 20.50 6.94L20.50 6.94L20.50 6.94Q20.80 7.26 20.97 7.72L20.97 7.72L20.97 7.72Q21.13 8.18 21.13 8.74L21.13 8.74L21.13 13.64L18.40 13.64L18.40 9.15L18.40 9.15Q18.40 8.87 18.32 8.66L18.32 8.66L18.32 8.66Q18.25 8.46 18.12 8.31L18.12 8.31L18.12 8.31Q17.99 8.17 17.81 8.10L17.81 8.10L17.81 8.10Q17.64 8.03 17.44 8.03L17.44 8.03L17.44 8.03Q17.14 8.03 16.85 8.17L16.85 8.17L16.85 8.17Q16.57 8.31 16.30 8.53L16.30 8.53L16.30 13.64L13.57 13.64ZM23.04 13.64L23.04 6.40L25.78 6.40L25.78 13.64L23.04 13.64ZM24.37 5.40L24.37 5.40L24.37 5.40Q24.02 5.40 23.74 5.30L23.74 5.30L23.74 5.30Q23.46 5.20 23.26 5.03L23.26 5.03L23.26 5.03Q23.06 4.85 22.96 4.62L22.96 4.62L22.96 4.62Q22.85 4.39 22.85 4.12L22.85 4.12L22.85 4.12Q22.85 3.85 22.97 3.60L22.97 3.60L22.97 3.60Q23.08 3.36 23.30 3.18L23.30 3.18L23.30 3.18Q23.51 3.00 23.80 2.90L23.80 2.90L23.80 2.90Q24.10 2.79 24.45 2.79L24.45 2.79L24.45 2.79Q24.80 2.79 25.08 2.89L25.08 2.89L25.08 2.89Q25.36 2.99 25.56 3.16L25.56 3.16L25.56 3.16Q25.76 3.34 25.86 3.57L25.86 3.57L25.86 3.57Q25.97 3.80 25.97 4.07L25.97 4.07L25.97 4.07Q25.97 4.35 25.85 4.59L25.85 4.59L25.85 4.59Q25.74 4.83 25.53 5.01L25.53 5.01L25.53 5.01Q25.31 5.19 25.02 5.29L25.02 5.29L25.02 5.29Q24.73 5.40 24.37 5.40ZM28.25 11.07L28.25 8.01L26.80 8.01L26.97 6.89L26.97 6.89Q27.34 6.75 27.60 6.62L27.60 6.62L27.60 6.62Q27.87 6.50 28.08 6.37L28.08 6.37L28.08 6.37Q28.28 6.23 28.44 6.08L28.44 6.08L28.44 6.08Q28.59 5.92 28.75 5.71L28.75 5.71L28.75 5.71Q28.90 5.50 29.06 5.22L29.06 5.22L29.06 5.22Q29.22 4.94 29.43 4.57L29.43 4.57L30.80 4.57L30.80 6.40L33.34 6.40L32.98 8.01L30.99 8.01L30.99 10.79L30.99 10.79Q30.99 11.47 31.33 11.74L31.33 11.74L31.33 11.74Q31.68 12.02 32.35 12.02L32.35 12.02L32.35 12.02Q32.59 12.02 32.84 11.98L32.84 11.98L32.84 11.98Q33.10 11.94 33.35 11.84L33.35 11.84L33.35 12.95L33.35 12.95Q32.78 13.38 32.08 13.58L32.08 13.58L32.08 13.58Q31.38 13.78 30.70 13.78L30.70 13.78L30.70 13.78Q30.02 13.78 29.55 13.59L29.55 13.59L29.55 13.59Q29.08 13.40 28.79 13.05L28.79 13.05L28.79 13.05Q28.51 12.69 28.38 12.20L28.38 12.20L28.38 12.20Q28.25 11.70 28.25 11.07L28.25 11.07ZM41.27 11.73L41.27 12.84L41.27 12.84Q40.86 13.13 40.46 13.31L40.46 13.31L40.46 13.31Q40.05 13.49 39.67 13.60L39.67 13.60L39.67 13.60Q39.28 13.70 38.91 13.74L38.91 13.74L38.91 13.74Q38.53 13.78 38.19 13.78L38.19 13.78L38.19 13.78Q37.25 13.78 36.52 13.55L36.52 13.55L36.52 13.55Q35.79 13.31 35.29 12.87L35.29 12.87L35.29 12.87Q34.79 12.42 34.54 11.78L34.54 11.78L34.54 11.78Q34.28 11.14 34.28 10.32L34.28 10.32L34.28 10.32Q34.28 9.35 34.62 8.60L34.62 8.60L34.62 8.60Q34.96 7.85 35.53 7.33L35.53 7.33L35.53 7.33Q36.09 6.81 36.84 6.54L36.84 6.54L36.84 6.54Q37.58 6.26 38.40 6.26L38.40 6.26L38.40 6.26Q39.13 6.26 39.73 6.48L39.73 6.48L39.73 6.48Q40.33 6.69 40.77 7.11L40.77 7.11L40.77 7.11Q41.20 7.53 41.44 8.16L41.44 8.16L41.44 8.16Q41.68 8.78 41.68 9.58L41.68 9.58L41.68 9.58Q41.68 9.89 41.65 10.10L41.65 10.10L41.65 10.10Q41.62 10.32 41.60 10.43L41.60 10.43L37.08 10.43L37.08 10.43Q37.08 10.88 37.24 11.18L37.24 11.18L37.24 11.18Q37.39 11.48 37.68 11.67L37.68 11.67L37.68 11.67Q37.97 11.85 38.37 11.94L38.37 11.94L38.37 11.94Q38.78 12.02 39.29 12.02L39.29 12.02L39.29 12.02Q39.70 12.02 40.23 11.96L40.23 11.96L40.23 11.96Q40.76 11.89 41.27 11.73L41.27 11.73ZM37.08 9.58L39.22 9.58L39.22 9.58Q39.22 9.13 39.14 8.81L39.14 8.81L39.14 8.81Q39.07 8.48 38.93 8.27L38.93 8.27L38.93 8.27Q38.80 8.07 38.61 7.97L38.61 7.97L38.61 7.97Q38.41 7.88 38.18 7.88L38.18 7.88L38.18 7.88Q37.67 7.88 37.38 8.30L37.38 8.30L37.38 8.30Q37.08 8.73 37.08 9.58L37.08 9.58ZM45.85 13.64L45.85 6.40L48.19 6.40L48.50 8.50L48.50 8.50Q48.62 8.29 48.73 8.08L48.73 8.08L48.73 8.08Q48.85 7.88 48.95 7.70L48.95 7.70L48.95 7.70Q49.05 7.53 49.12 7.40L49.12 7.40L49.12 7.40Q49.19 7.27 49.21 7.23L49.21 7.23L49.21 7.23Q49.34 7.02 49.50 6.84L49.50 6.84L49.50 6.84Q49.65 6.67 49.84 6.54L49.84 6.54L49.84 6.54Q50.04 6.41 50.28 6.33L50.28 6.33L50.28 6.33Q50.52 6.26 50.83 6.26L50.83 6.26L50.83 6.26Q51.03 6.26 51.29 6.32L51.29 6.32L51.29 6.32Q51.54 6.37 51.77 6.49L51.77 6.49L51.47 8.93L51.47 8.93Q51.40 8.91 51.29 8.90L51.29 8.90L51.29 8.90Q51.17 8.89 51.04 8.89L51.04 8.89L51.04 8.89Q50.91 8.88 50.79 8.88L50.79 8.88L50.79 8.88Q50.67 8.87 50.58 8.87L50.58 8.87L50.58 8.87Q50.28 8.87 49.98 8.91L49.98 8.91L49.98 8.91Q49.69 8.96 49.43 9.03L49.43 9.03L49.43 9.03Q49.16 9.11 48.95 9.23L48.95 9.23L48.95 9.23Q48.73 9.34 48.58 9.47L48.58 9.47L48.58 13.64L45.85 13.64ZM53.14 13.64L53.14 2.69L55.87 2.69L55.87 7.55L55.87 7.55Q56.15 7.31 56.45 7.08L56.45 7.08L56.45 7.08Q56.75 6.85 57.07 6.67L57.07 6.67L57.07 6.67Q57.39 6.49 57.74 6.37L57.74 6.37L57.74 6.37Q58.09 6.26 58.48 6.26L58.48 6.26L58.48 6.26Q58.96 6.26 59.37 6.44L59.37 6.44L59.37 6.44Q59.77 6.61 60.07 6.94L60.07 6.94L60.07 6.94Q60.37 7.26 60.53 7.72L60.53 7.72L60.53 7.72Q60.70 8.18 60.70 8.74L60.70 8.74L60.70 13.64L57.96 13.64L57.96 9.15L57.96 9.15Q57.96 8.87 57.89 8.66L57.89 8.66L57.89 8.66Q57.81 8.46 57.68 8.31L57.68 8.31L57.68 8.31Q57.55 8.17 57.38 8.10L57.38 8.10L57.38 8.10Q57.20 8.03 57.00 8.03L57.00 8.03L57.00 8.03Q56.70 8.03 56.42 8.17L56.42 8.17L56.42 8.17Q56.14 8.31 55.87 8.53L55.87 8.53L55.87 13.64L53.14 13.64ZM62.61 13.64L62.61 6.40L65.34 6.40L65.34 13.64L62.61 13.64ZM63.94 5.40L63.94 5.40L63.94 5.40Q63.59 5.40 63.31 5.30L63.31 5.30L63.31 5.30Q63.03 5.20 62.83 5.03L62.83 5.03L62.83 5.03Q62.63 4.85 62.52 4.62L62.52 4.62L62.52 4.62Q62.42 4.39 62.42 4.12L62.42 4.12L62.42 4.12Q62.42 3.85 62.54 3.60L62.54 3.60L62.54 3.60Q62.65 3.36 62.86 3.18L62.86 3.18L62.86 3.18Q63.08 3.00 63.37 2.90L63.37 2.90L63.37 2.90Q63.66 2.79 64.02 2.79L64.02 2.79L64.02 2.79Q64.37 2.79 64.65 2.89L64.65 2.89L64.65 2.89Q64.93 2.99 65.13 3.16L65.13 3.16L65.13 3.16Q65.32 3.34 65.43 3.57L65.43 3.57L65.43 3.57Q65.54 3.80 65.54 4.07L65.54 4.07L65.54 4.07Q65.54 4.35 65.42 4.59L65.42 4.59L65.42 4.59Q65.30 4.83 65.09 5.01L65.09 5.01L65.09 5.01Q64.88 5.19 64.59 5.29L64.59 5.29L64.59 5.29Q64.29 5.40 63.94 5.40ZM67.26 13.64L67.26 6.40L69.60 6.40L69.91 7.56L69.91 7.56Q70.14 7.37 70.43 7.14L70.43 7.14L70.43 7.14Q70.71 6.91 71.04 6.72L71.04 6.72L71.04 6.72Q71.37 6.52 71.74 6.39L71.74 6.39L71.74 6.39Q72.12 6.26 72.54 6.26L72.54 6.26L72.54 6.26Q73.04 6.26 73.46 6.44L73.46 6.44L73.46 6.44Q73.88 6.61 74.18 6.94L74.18 6.94L74.18 6.94Q74.48 7.26 74.65 7.72L74.65 7.72L74.65 7.72Q74.82 8.18 74.82 8.74L74.82 8.74L74.82 13.64L72.08 13.64L72.08 9.15L72.08 9.15Q72.08 8.87 72.01 8.66L72.01 8.66L72.01 8.66Q71.93 8.45 71.80 8.31L71.80 8.31L71.80 8.31Q71.67 8.17 71.49 8.10L71.49 8.10L71.49 8.10Q71.32 8.03 71.13 8.03L71.13 8.03L71.13 8.03Q70.82 8.03 70.54 8.18L70.54 8.18L70.54 8.18Q70.25 8.33 69.99 8.53L69.99 8.53L69.99 13.64L67.26 13.64ZM80.16 13.78L80.16 13.78L80.16 13.78Q79.17 13.78 78.45 13.49L78.45 13.49L78.45 13.49Q77.73 13.20 77.26 12.71L77.26 12.71L77.26 12.71Q76.79 12.22 76.56 11.57L76.56 11.57L76.56 11.57Q76.32 10.92 76.32 10.21L76.32 10.21L76.32 10.21Q76.32 9.38 76.63 8.66L76.63 8.66L76.63 8.66Q76.93 7.94 77.50 7.40L77.50 7.40L77.50 7.40Q78.06 6.87 78.86 6.57L78.86 6.57L78.86 6.57Q79.66 6.26 80.66 6.26L80.66 6.26L80.66 6.26Q81.62 6.26 82.34 6.55L82.34 6.55L82.34 6.55Q83.06 6.83 83.54 7.32L83.54 7.32L83.54 7.32Q84.02 7.81 84.26 8.46L84.26 8.46L84.26 8.46Q84.50 9.11 84.50 9.84L84.50 9.84L84.50 9.84Q84.50 10.69 84.19 11.42L84.19 11.42L84.19 11.42Q83.88 12.14 83.31 12.67L83.31 12.67L83.31 12.67Q82.74 13.19 81.94 13.49L81.94 13.49L81.94 13.49Q81.14 13.78 80.16 13.78ZM80.45 12.17L80.45 12.17L80.45 12.17Q80.71 12.17 80.94 12.05L80.94 12.05L80.94 12.05Q81.17 11.94 81.34 11.68L81.34 11.68L81.34 11.68Q81.50 11.43 81.60 11.04L81.60 11.04L81.60 11.04Q81.70 10.66 81.70 10.11L81.70 10.11L81.70 10.11Q81.70 9.60 81.61 9.19L81.61 9.19L81.61 9.19Q81.52 8.78 81.35 8.49L81.35 8.49L81.35 8.49Q81.18 8.20 80.93 8.04L80.93 8.04L80.93 8.04Q80.68 7.88 80.37 7.88L80.37 7.88L80.37 7.88Q79.82 7.88 79.47 8.39L79.47 8.39L79.47 8.39Q79.13 8.90 79.13 9.95L79.13 9.95L79.13 9.95Q79.13 10.49 79.22 10.90L79.22 10.90L79.22 10.90Q79.32 11.31 79.49 11.60L79.49 11.60L79.49 11.60Q79.67 11.88 79.91 12.02L79.91 12.02L79.91 12.02Q80.15 12.17 80.45 12.17Z"></path></g><defs data-v-fde0c5aa=""><linearGradient data-v-fde0c5aa="" gradientTransform="rotate(25)" id="e91d500b-3cbe-4aa4-9769-48d022afa436" x1="0%" y1="0%" x2="100%" y2="0%"><stop data-v-fde0c5aa="" offset="0%" stop-color="#177775" stop-opacity="1"></stop><stop data-v-fde0c5aa="" offset="100%" stop-color="#28D2BF" stop-opacity="1"></stop></linearGradient></defs><g data-v-fde0c5aa="" id="ac42a612-03e4-44a5-8797-c551c5a280fb" stroke="none" fill="url(#e91d500b-3cbe-4aa4-9769-48d022afa436)" transform="matrix(1.5521241016399063,0,0,1.5521241016399063,40,122.84403700783149)"><path d="M16 26.219l7.496-12.954H8.504zM7.496 19.046L0 32h14.992zM17.008 32H32l-7.496-12.954zM3.587 2.992L0 9.191h7.174zM8.275 9.191h7.174l-3.587-6.199zM20.138 2.992l-3.587 6.199h7.174zM24.826 9.191H32l-3.587-6.199z"></path></g><defs data-v-fde0c5aa=""><!----></defs><g data-v-fde0c5aa="" id="f0a8e315-4e54-4346-ada4-10803c95cca0" fill="#000000" transform="matrix(0.44240369650296285,0,0,0.44240369650296285,102.4334973059877,158.74412912749105)"><path d="M10.00 13.22L9.53 13.17L5.75 3.91L5.04 3.91L1.25 13.17L0.80 13.22C0.62 13.23 0.53 13.33 0.53 13.50L0.53 13.82L0.98 13.82L1.27 13.82L1.53 13.82L1.62 13.82L2.94 13.82L2.94 13.50C2.94 13.31 2.83 13.23 2.62 13.22C2.60 13.22 2.58 13.20 2.53 13.20C2.49 13.20 2.44 13.19 2.34 13.19C2.24 13.19 2.11 13.19 1.97 13.17L2.95 10.75L3.02 10.57L7.76 10.57L7.83 10.75L8.81 13.17C8.67 13.19 8.55 13.19 8.46 13.19C8.36 13.19 8.29 13.20 8.25 13.20C8.20 13.20 8.18 13.22 8.16 13.22C7.95 13.23 7.84 13.31 7.84 13.50L7.84 13.82L9.16 13.82L9.25 13.82L9.52 13.82L9.80 13.82L10.26 13.82L10.26 13.50C10.26 13.33 10.18 13.23 10.00 13.22ZM5.19 5.22C5.22 5.14 5.26 5.04 5.29 4.94C5.32 4.84 5.36 4.75 5.39 4.63C5.42 4.75 5.46 4.84 5.49 4.94C5.52 5.04 5.56 5.12 5.59 5.21L7.55 10.04L3.25 10.04ZM35.46 13.54C35.46 13.38 35.38 13.30 35.20 13.29L35.13 13.29L35.03 13.29C34.99 13.29 34.92 13.27 34.83 13.27L34.52 13.27L34.52 3.63L33.87 3.63L32.86 3.63L32.86 3.91C32.86 4.06 32.96 4.14 33.14 4.16L33.21 4.16C33.24 4.16 33.26 4.17 33.31 4.17L33.53 4.17C33.63 4.17 33.74 4.19 33.87 4.19L33.87 7.76C33.61 7.42 33.32 7.17 32.97 7.00C32.62 6.82 32.21 6.73 31.74 6.73C31.25 6.73 30.81 6.83 30.44 7.01C30.06 7.20 29.75 7.46 29.48 7.78C29.22 8.11 29.04 8.50 28.90 8.93C28.76 9.37 28.70 9.84 28.70 10.35C28.70 11.54 28.94 12.43 29.41 13.02C29.89 13.61 30.56 13.90 31.42 13.90C31.93 13.90 32.40 13.79 32.82 13.54C33.24 13.29 33.59 12.95 33.89 12.53L33.96 13.64C33.98 13.76 34.05 13.82 34.16 13.82L34.52 13.82L35.46 13.82L35.46 13.61ZM33.87 12.01C33.57 12.43 33.24 12.77 32.86 13.01C32.48 13.24 32.07 13.37 31.61 13.37C30.90 13.37 30.34 13.13 29.96 12.64C29.58 12.15 29.39 11.38 29.39 10.35C29.39 9.88 29.43 9.48 29.54 9.10C29.65 8.72 29.81 8.39 30.02 8.12C30.23 7.85 30.48 7.63 30.79 7.48C31.09 7.32 31.46 7.25 31.86 7.25C32.27 7.25 32.65 7.34 32.97 7.50C33.29 7.67 33.60 7.95 33.87 8.34ZM44.62 4.89C44.67 4.94 44.74 4.98 44.81 5.01C44.88 5.04 44.97 5.07 45.05 5.07C45.14 5.07 45.22 5.04 45.29 5.01C45.36 4.98 45.43 4.94 45.49 4.89C45.54 4.83 45.60 4.76 45.63 4.69C45.65 4.62 45.68 4.54 45.68 4.45C45.68 4.37 45.65 4.30 45.63 4.21C45.60 4.14 45.54 4.07 45.49 4.02C45.43 3.96 45.36 3.91 45.29 3.88C45.22 3.85 45.14 3.84 45.05 3.84C44.97 3.84 44.88 3.85 44.81 3.88C44.74 3.91 44.67 3.96 44.62 4.02C44.56 4.07 44.52 4.14 44.49 4.21C44.46 4.28 44.44 4.37 44.44 4.45C44.44 4.54 44.46 4.62 44.49 4.69C44.52 4.76 44.56 4.83 44.62 4.89ZM46.12 13.29L46.05 13.29L45.93 13.29C45.89 13.29 45.82 13.27 45.72 13.27C45.63 13.27 45.51 13.26 45.39 13.26L45.39 6.85L44.72 6.85L43.71 6.85L43.71 7.13C43.71 7.28 43.81 7.36 43.99 7.38L44.06 7.38C44.09 7.38 44.13 7.39 44.17 7.39L44.38 7.39C44.48 7.39 44.59 7.41 44.72 7.41L44.72 13.26C44.56 13.26 44.42 13.29 44.31 13.29L44.07 13.29L43.99 13.29C43.81 13.30 43.71 13.38 43.71 13.54L43.71 13.82L44.72 13.82L45.39 13.82L46.40 13.82L46.40 13.54C46.40 13.38 46.30 13.30 46.12 13.29ZM57.29 6.73C56.91 6.73 56.57 6.79 56.27 6.90C55.96 7.01 55.71 7.15 55.48 7.35C55.26 7.55 55.09 7.77 54.98 8.05C54.87 8.33 54.80 8.64 54.80 8.97C54.80 9.39 54.89 9.76 55.08 10.08C55.26 10.40 55.51 10.65 55.85 10.85C55.71 10.92 55.59 11.00 55.48 11.10C55.37 11.20 55.29 11.28 55.22 11.40C55.15 11.51 55.09 11.61 55.05 11.72C55.01 11.83 54.99 11.93 54.99 12.03C54.99 12.29 55.05 12.49 55.19 12.64C55.33 12.80 55.51 12.89 55.75 12.98C55.33 13.12 54.98 13.33 54.74 13.59C54.50 13.86 54.38 14.18 54.38 14.55C54.38 14.80 54.45 15.05 54.57 15.27C54.70 15.50 54.88 15.69 55.13 15.86C55.38 16.03 55.69 16.17 56.06 16.27C56.42 16.37 56.85 16.42 57.34 16.42C57.82 16.42 58.27 16.35 58.66 16.23C59.05 16.10 59.36 15.95 59.64 15.74C59.92 15.53 60.13 15.29 60.27 15.02C60.41 14.76 60.48 14.49 60.48 14.20C60.48 13.89 60.42 13.64 60.28 13.44C60.14 13.24 59.95 13.12 59.72 13.01C59.50 12.89 59.22 12.82 58.93 12.78C58.63 12.74 58.34 12.71 58.03 12.70C57.72 12.68 57.41 12.66 57.12 12.64C56.83 12.63 56.56 12.61 56.34 12.56C56.11 12.50 55.92 12.43 55.78 12.32C55.64 12.21 55.57 12.05 55.57 11.86C55.57 11.72 55.62 11.56 55.73 11.41C55.85 11.26 56.00 11.13 56.20 11.02C56.52 11.14 56.88 11.19 57.29 11.19C57.65 11.19 57.99 11.14 58.30 11.03C58.60 10.92 58.86 10.78 59.08 10.58C59.30 10.39 59.46 10.16 59.58 9.88C59.71 9.60 59.77 9.31 59.77 8.97C59.77 8.72 59.74 8.48 59.67 8.26C59.60 8.04 59.49 7.84 59.36 7.66L60.42 7.57C60.55 7.56 60.62 7.50 60.62 7.39L60.62 7.15L58.83 7.15C58.62 7.01 58.38 6.92 58.13 6.85C57.88 6.78 57.60 6.73 57.29 6.73ZM59.88 14.29C59.88 14.53 59.81 14.74 59.68 14.94C59.56 15.13 59.37 15.33 59.15 15.47C58.93 15.61 58.66 15.72 58.35 15.81C58.04 15.89 57.71 15.92 57.36 15.92C56.98 15.92 56.64 15.88 56.35 15.81C56.06 15.74 55.79 15.62 55.59 15.50C55.40 15.37 55.24 15.22 55.13 15.05C55.02 14.88 54.98 14.69 54.98 14.48C54.98 14.31 55.02 14.17 55.08 14.03C55.13 13.89 55.22 13.76 55.33 13.65C55.44 13.54 55.55 13.43 55.71 13.34C55.86 13.26 56.03 13.17 56.21 13.10C56.45 13.15 56.70 13.17 56.98 13.19C57.26 13.20 57.51 13.22 57.79 13.23C58.07 13.24 58.32 13.26 58.58 13.29C58.83 13.31 59.05 13.38 59.25 13.45C59.44 13.52 59.58 13.62 59.70 13.76C59.81 13.90 59.88 14.07 59.88 14.29ZM57.29 10.74C56.99 10.74 56.74 10.70 56.50 10.61C56.27 10.53 56.07 10.40 55.90 10.25C55.73 10.09 55.62 9.91 55.54 9.70C55.45 9.49 55.41 9.25 55.41 8.99C55.41 8.72 55.45 8.48 55.54 8.26C55.62 8.04 55.73 7.87 55.90 7.71C56.07 7.56 56.27 7.43 56.50 7.35C56.74 7.27 56.99 7.22 57.29 7.22C57.58 7.22 57.85 7.27 58.07 7.35C58.30 7.43 58.49 7.56 58.66 7.71C58.83 7.87 58.95 8.04 59.04 8.26C59.12 8.48 59.16 8.71 59.16 8.97C59.16 9.24 59.12 9.49 59.04 9.70C58.95 9.91 58.83 10.09 58.67 10.25C58.52 10.40 58.32 10.53 58.09 10.61C57.85 10.70 57.58 10.74 57.29 10.74ZM69.79 4.89C69.85 4.94 69.92 4.98 69.99 5.01C70.06 5.04 70.14 5.07 70.22 5.07C70.31 5.07 70.39 5.04 70.46 5.01C70.53 4.98 70.60 4.94 70.66 4.89C70.71 4.83 70.77 4.76 70.80 4.69C70.83 4.62 70.85 4.54 70.85 4.45C70.85 4.37 70.83 4.30 70.80 4.21C70.77 4.14 70.71 4.07 70.66 4.02C70.60 3.96 70.53 3.91 70.46 3.88C70.39 3.85 70.31 3.84 70.22 3.84C70.14 3.84 70.06 3.85 69.99 3.88C69.92 3.91 69.85 3.96 69.79 4.02C69.73 4.07 69.69 4.14 69.66 4.21C69.64 4.28 69.61 4.37 69.61 4.45C69.61 4.54 69.64 4.62 69.66 4.69C69.69 4.76 69.73 4.83 69.79 4.89ZM71.29 13.29L71.22 13.29L71.11 13.29C71.06 13.29 70.99 13.27 70.90 13.27C70.80 13.27 70.69 13.26 70.56 13.26L70.56 6.85L69.89 6.85L68.88 6.85L68.88 7.13C68.88 7.28 68.98 7.36 69.16 7.38L69.23 7.38C69.26 7.38 69.30 7.39 69.34 7.39L69.55 7.39C69.65 7.39 69.76 7.41 69.89 7.41L69.89 13.26C69.73 13.26 69.59 13.29 69.48 13.29L69.24 13.29L69.16 13.29C68.98 13.30 68.88 13.38 68.88 13.54L68.88 13.82L69.89 13.82L70.56 13.82L71.57 13.82L71.57 13.54C71.57 13.38 71.47 13.30 71.29 13.29ZM82.04 13.93C82.33 13.93 82.61 13.86 82.89 13.75C83.16 13.64 83.38 13.48 83.57 13.29L83.38 12.98C83.34 12.94 83.31 12.92 83.27 12.92C83.24 12.92 83.19 12.94 83.13 12.99C83.08 13.05 83.01 13.09 82.92 13.15C82.84 13.20 82.73 13.26 82.60 13.31C82.47 13.37 82.35 13.38 82.18 13.38C82.04 13.38 81.90 13.36 81.79 13.31C81.68 13.27 81.58 13.20 81.49 13.12C81.41 13.03 81.34 12.92 81.28 12.78C81.23 12.64 81.21 12.49 81.21 12.29L81.21 7.57L83.41 7.57L83.41 7.07L81.21 7.07L81.21 4.41L80.89 4.41C80.84 4.41 80.81 4.44 80.78 4.47C80.75 4.49 80.72 4.54 80.72 4.58L80.56 7.07L79.37 7.15L79.37 7.41C79.37 7.46 79.38 7.49 79.41 7.52C79.44 7.55 79.49 7.57 79.55 7.57L80.54 7.57L80.54 12.33C80.54 12.88 80.67 13.27 80.93 13.54C81.20 13.80 81.56 13.93 82.04 13.93ZM97.40 13.29L97.30 13.29L97.08 13.29C96.98 13.29 96.87 13.27 96.75 13.27L96.75 9.28C96.75 8.89 96.71 8.55 96.61 8.23C96.52 7.91 96.38 7.64 96.19 7.42C96.01 7.20 95.77 7.03 95.49 6.92C95.21 6.79 94.89 6.73 94.51 6.73C94.01 6.73 93.56 6.83 93.16 7.01C92.75 7.20 92.37 7.48 92.01 7.84L92.12 8.05C92.16 8.13 92.23 8.18 92.33 8.18C92.40 8.18 92.50 8.12 92.60 8.02C92.69 7.92 92.83 7.84 93.00 7.73C93.17 7.62 93.35 7.52 93.59 7.42C93.83 7.32 94.11 7.28 94.44 7.28C94.99 7.28 95.41 7.45 95.69 7.80C95.97 8.15 96.10 8.64 96.10 9.28L96.10 10.01C95.31 10.02 94.64 10.09 94.08 10.21C93.52 10.32 93.06 10.47 92.69 10.65C92.33 10.84 92.08 11.06 91.91 11.31C91.74 11.56 91.66 11.83 91.66 12.12C91.66 12.45 91.71 12.73 91.81 12.95C91.92 13.17 92.06 13.36 92.23 13.50C92.40 13.64 92.61 13.75 92.83 13.82C93.06 13.89 93.28 13.93 93.52 13.93C93.80 13.93 94.07 13.90 94.30 13.85C94.54 13.79 94.75 13.71 94.96 13.61C95.17 13.51 95.37 13.38 95.56 13.23C95.75 13.08 95.93 12.91 96.12 12.73L96.22 13.62C96.25 13.75 96.35 13.82 96.49 13.82L96.50 13.82L96.75 13.82L97.68 13.82L97.68 13.54C97.68 13.38 97.58 13.30 97.40 13.29ZM96.10 12.26C95.93 12.43 95.77 12.60 95.61 12.74C95.44 12.88 95.26 13.01 95.06 13.12C94.86 13.23 94.65 13.30 94.43 13.36C94.21 13.41 93.95 13.44 93.69 13.44C93.51 13.44 93.32 13.43 93.16 13.37C92.99 13.31 92.85 13.24 92.72 13.13C92.60 13.02 92.48 12.88 92.41 12.71C92.33 12.54 92.30 12.35 92.30 12.11C92.30 11.86 92.37 11.63 92.53 11.44C92.68 11.24 92.90 11.09 93.21 10.95C93.52 10.81 93.91 10.70 94.39 10.61C94.86 10.53 95.44 10.47 96.10 10.46ZM108.37 13.29L108.30 13.29L108.19 13.29C108.15 13.29 108.08 13.27 107.98 13.27C107.88 13.27 107.77 13.26 107.65 13.26L107.65 3.63L106.97 3.63L105.97 3.63L105.97 3.91C105.97 4.06 106.06 4.14 106.25 4.16L106.32 4.16C106.34 4.16 106.39 4.17 106.43 4.17L106.64 4.17C106.74 4.17 106.85 4.19 106.97 4.19L106.97 13.26C106.82 13.26 106.68 13.29 106.57 13.29L106.33 13.29L106.25 13.29C106.06 13.30 105.97 13.38 105.97 13.54L105.97 13.82L106.97 13.82L107.65 13.82L108.65 13.82L108.65 13.54C108.65 13.38 108.56 13.30 108.37 13.29ZM131.81 11.06C131.70 10.86 131.56 10.71 131.38 10.57C131.19 10.43 130.98 10.32 130.76 10.23C130.54 10.15 130.28 10.05 130.05 9.98C129.81 9.91 129.57 9.83 129.33 9.76C129.11 9.69 128.90 9.59 128.72 9.49C128.53 9.39 128.39 9.27 128.28 9.13C128.17 8.99 128.11 8.81 128.11 8.58C128.11 8.40 128.14 8.23 128.23 8.08C128.31 7.92 128.42 7.77 128.58 7.64C128.72 7.52 128.90 7.43 129.11 7.36C129.32 7.29 129.54 7.25 129.79 7.25C130.16 7.25 130.52 7.31 130.90 7.43C130.91 7.60 130.93 7.77 130.94 7.92C130.96 8.08 130.96 8.19 130.97 8.27C130.98 8.36 130.98 8.43 130.98 8.44C131.00 8.67 131.10 8.78 131.29 8.78L131.63 8.78L131.63 7.11C130.90 6.86 130.28 6.75 129.78 6.75C129.43 6.75 129.11 6.80 128.83 6.90C128.55 7.00 128.30 7.14 128.10 7.31C127.90 7.48 127.75 7.69 127.64 7.91C127.53 8.13 127.48 8.37 127.48 8.62C127.48 8.92 127.54 9.16 127.65 9.35C127.76 9.55 127.90 9.70 128.09 9.84C128.27 9.98 128.46 10.09 128.70 10.18C128.93 10.26 129.16 10.35 129.42 10.42C129.65 10.49 129.89 10.57 130.13 10.64C130.35 10.71 130.56 10.81 130.75 10.92C130.93 11.03 131.08 11.16 131.19 11.31C131.31 11.47 131.36 11.65 131.36 11.89C131.36 12.10 131.32 12.29 131.25 12.49C131.17 12.68 131.05 12.84 130.90 12.98C130.75 13.12 130.56 13.23 130.34 13.31C130.12 13.40 129.86 13.44 129.57 13.44C129.04 13.44 128.59 13.37 128.21 13.22C128.20 13.03 128.18 12.87 128.17 12.71C128.16 12.56 128.16 12.43 128.14 12.35C128.13 12.26 128.13 12.19 128.13 12.18C128.11 11.96 128.02 11.84 127.82 11.84L127.48 11.84L127.48 13.54C128.16 13.79 128.84 13.93 129.54 13.93C129.93 13.93 130.27 13.87 130.58 13.76C130.89 13.65 131.14 13.50 131.35 13.30C131.56 13.10 131.71 12.89 131.82 12.63C131.94 12.36 131.99 12.08 131.99 11.77C131.99 11.49 131.92 11.26 131.81 11.06ZM143.26 6.73C142.76 6.73 142.31 6.83 141.92 7.00C141.53 7.17 141.19 7.41 140.91 7.71C140.63 8.02 140.43 8.40 140.29 8.85C140.15 9.30 140.07 9.79 140.07 10.33C140.07 10.88 140.15 11.37 140.29 11.80C140.43 12.24 140.63 12.63 140.91 12.94C141.19 13.24 141.53 13.48 141.92 13.65C142.31 13.82 142.76 13.90 143.26 13.90C143.77 13.90 144.20 13.82 144.59 13.65C144.98 13.48 145.32 13.24 145.59 12.94C145.85 12.63 146.08 12.24 146.22 11.80C146.36 11.37 146.43 10.88 146.43 10.33C146.43 9.79 146.36 9.30 146.22 8.85C146.08 8.40 145.85 8.02 145.59 7.71C145.32 7.41 144.98 7.17 144.59 7.00C144.20 6.83 143.77 6.73 143.26 6.73ZM143.26 13.38C142.84 13.38 142.48 13.31 142.17 13.17C141.86 13.03 141.60 12.82 141.39 12.56C141.18 12.29 141.04 11.97 140.92 11.59C140.81 11.21 140.77 10.79 140.77 10.33C140.77 9.87 140.81 9.45 140.92 9.07C141.04 8.69 141.18 8.37 141.39 8.11C141.60 7.84 141.86 7.62 142.17 7.48C142.48 7.34 142.84 7.27 143.26 7.27C143.68 7.27 144.03 7.34 144.34 7.48C144.65 7.62 144.91 7.84 145.12 8.11C145.33 8.37 145.49 8.69 145.59 9.07C145.68 9.45 145.74 9.87 145.74 10.33C145.74 10.79 145.68 11.21 145.59 11.59C145.49 11.97 145.33 12.29 145.12 12.56C144.91 12.82 144.65 13.03 144.34 13.17C144.03 13.31 143.68 13.38 143.26 13.38ZM157.05 13.29L156.98 13.29L156.87 13.29C156.83 13.29 156.76 13.27 156.66 13.27C156.56 13.27 156.45 13.26 156.32 13.26L156.32 3.63L155.65 3.63L154.64 3.63L154.64 3.91C154.64 4.06 154.74 4.14 154.92 4.16L154.99 4.16C155.02 4.16 155.06 4.17 155.11 4.17L155.32 4.17C155.41 4.17 155.53 4.19 155.65 4.19L155.65 13.26C155.50 13.26 155.36 13.29 155.25 13.29L155.01 13.29L154.92 13.29C154.74 13.30 154.64 13.38 154.64 13.54L154.64 13.82L155.65 13.82L156.32 13.82L157.33 13.82L157.33 13.54C157.33 13.38 157.23 13.30 157.05 13.29ZM172.37 13.29L172.30 13.29L172.19 13.29C172.14 13.29 172.07 13.27 171.98 13.27C171.88 13.27 171.77 13.26 171.64 13.26L171.64 6.85L170.97 6.86L169.96 6.86L169.96 7.13C169.96 7.28 170.06 7.36 170.24 7.38L170.31 7.38C170.34 7.38 170.38 7.39 170.42 7.39L170.63 7.39C170.73 7.39 170.84 7.41 170.97 7.41L170.97 12.08C170.66 12.49 170.30 12.81 169.90 13.05C169.51 13.27 169.09 13.40 168.64 13.40C168.03 13.40 167.57 13.20 167.27 12.84C166.98 12.46 166.82 11.96 166.82 11.30L166.82 6.85L166.15 6.86L165.14 6.86L165.14 7.13C165.14 7.28 165.24 7.36 165.42 7.38L165.49 7.38C165.52 7.38 165.56 7.39 165.61 7.39L165.82 7.39C165.91 7.39 166.03 7.41 166.15 7.41L166.15 11.30C166.15 11.70 166.21 12.07 166.31 12.39C166.40 12.71 166.54 12.99 166.74 13.22C166.94 13.44 167.16 13.62 167.45 13.75C167.75 13.87 168.08 13.93 168.48 13.93C168.99 13.93 169.47 13.80 169.89 13.57C170.31 13.33 170.69 13.01 171.01 12.60L171.07 13.64C171.07 13.76 171.15 13.82 171.28 13.82L171.64 13.82L172.65 13.82L172.65 13.54C172.65 13.38 172.55 13.30 172.37 13.29ZM183.15 13.93C183.44 13.93 183.72 13.86 184.00 13.75C184.27 13.64 184.49 13.48 184.67 13.29L184.49 12.98C184.45 12.94 184.42 12.92 184.38 12.92C184.35 12.92 184.30 12.94 184.24 12.99C184.18 13.05 184.11 13.09 184.03 13.15C183.95 13.20 183.83 13.26 183.71 13.31C183.58 13.37 183.46 13.38 183.29 13.38C183.15 13.38 183.01 13.36 182.90 13.31C182.78 13.27 182.69 13.20 182.60 13.12C182.52 13.03 182.45 12.92 182.39 12.78C182.34 12.64 182.32 12.49 182.32 12.29L182.32 7.57L184.52 7.57L184.52 7.07L182.32 7.07L182.32 4.41L182 4.41C181.94 4.41 181.92 4.44 181.89 4.47C181.86 4.49 181.83 4.54 181.83 4.58L181.66 7.07L180.47 7.15L180.47 7.41C180.47 7.46 180.49 7.49 180.52 7.52C180.54 7.55 180.60 7.57 180.66 7.57L181.65 7.57L181.65 12.33C181.65 12.88 181.78 13.27 182.04 13.54C182.31 13.80 182.67 13.93 183.15 13.93ZM193.82 4.89C193.87 4.94 193.94 4.98 194.01 5.01C194.08 5.04 194.17 5.07 194.25 5.07C194.33 5.07 194.42 5.04 194.49 5.01C194.56 4.98 194.63 4.94 194.68 4.89C194.74 4.83 194.80 4.76 194.82 4.69C194.85 4.62 194.88 4.54 194.88 4.45C194.88 4.37 194.85 4.30 194.82 4.21C194.80 4.14 194.74 4.07 194.68 4.02C194.63 3.96 194.56 3.91 194.49 3.88C194.42 3.85 194.33 3.84 194.25 3.84C194.17 3.84 194.08 3.85 194.01 3.88C193.94 3.91 193.87 3.96 193.82 4.02C193.76 4.07 193.72 4.14 193.69 4.21C193.66 4.28 193.63 4.37 193.63 4.45C193.63 4.54 193.66 4.62 193.69 4.69C193.72 4.76 193.76 4.83 193.82 4.89ZM195.31 13.29L195.24 13.29L195.13 13.29C195.09 13.29 195.02 13.27 194.92 13.27C194.82 13.27 194.71 13.26 194.59 13.26L194.59 6.85L193.91 6.85L192.91 6.85L192.91 7.13C192.91 7.28 193.00 7.36 193.19 7.38L193.26 7.38C193.28 7.38 193.33 7.39 193.37 7.39L193.58 7.39C193.68 7.39 193.79 7.41 193.91 7.41L193.91 13.26C193.76 13.26 193.62 13.29 193.51 13.29L193.27 13.29L193.19 13.29C193.00 13.30 192.91 13.38 192.91 13.54L192.91 13.82L193.91 13.82L194.59 13.82L195.59 13.82L195.59 13.54C195.59 13.38 195.50 13.30 195.31 13.29ZM206.88 6.73C206.37 6.73 205.93 6.83 205.53 7.00C205.14 7.17 204.81 7.41 204.53 7.71C204.25 8.02 204.05 8.40 203.91 8.85C203.77 9.30 203.69 9.79 203.69 10.33C203.69 10.88 203.77 11.37 203.91 11.80C204.05 12.24 204.25 12.63 204.53 12.94C204.81 13.24 205.14 13.48 205.53 13.65C205.93 13.82 206.37 13.90 206.88 13.90C207.38 13.90 207.82 13.82 208.21 13.65C208.60 13.48 208.94 13.24 209.20 12.94C209.47 12.63 209.69 12.24 209.83 11.80C209.97 11.37 210.04 10.88 210.04 10.33C210.04 9.79 209.97 9.30 209.83 8.85C209.69 8.40 209.47 8.02 209.20 7.71C208.94 7.41 208.60 7.17 208.21 7.00C207.82 6.83 207.38 6.73 206.88 6.73ZM206.88 13.38C206.46 13.38 206.09 13.31 205.79 13.17C205.48 13.03 205.21 12.82 205.00 12.56C204.79 12.29 204.65 11.97 204.54 11.59C204.43 11.21 204.39 10.79 204.39 10.33C204.39 9.87 204.43 9.45 204.54 9.07C204.65 8.69 204.79 8.37 205.00 8.11C205.21 7.84 205.48 7.62 205.79 7.48C206.09 7.34 206.46 7.27 206.88 7.27C207.30 7.27 207.65 7.34 207.96 7.48C208.26 7.62 208.53 7.84 208.74 8.11C208.95 8.37 209.10 8.69 209.20 9.07C209.30 9.45 209.36 9.87 209.36 10.33C209.36 10.79 209.30 11.21 209.20 11.59C209.10 11.97 208.95 12.29 208.74 12.56C208.53 12.82 208.26 13.03 207.96 13.17C207.65 13.31 207.30 13.38 206.88 13.38ZM225.51 13.29L225.44 13.29L225.33 13.29C225.29 13.29 225.22 13.27 225.12 13.27C225.02 13.27 224.91 13.26 224.78 13.26L224.78 9.37C224.78 8.96 224.73 8.60 224.63 8.27C224.53 7.95 224.39 7.67 224.20 7.45C224.00 7.22 223.76 7.06 223.47 6.93C223.17 6.80 222.84 6.75 222.46 6.75C221.94 6.75 221.47 6.87 221.05 7.11C220.63 7.36 220.26 7.67 219.94 8.08L219.88 7.03C219.87 6.92 219.80 6.86 219.67 6.86L219.31 6.86L218.30 6.86L218.30 7.13C218.30 7.28 218.39 7.36 218.57 7.38L218.65 7.38C218.68 7.38 218.71 7.39 218.75 7.39L218.96 7.39C219.06 7.39 219.18 7.41 219.31 7.41L219.31 13.26C219.14 13.26 219.00 13.29 218.89 13.29L218.67 13.29L218.57 13.29C218.39 13.30 218.30 13.38 218.30 13.54L218.30 13.82L219.31 13.82L219.97 13.82L220.98 13.82L220.98 13.54C220.98 13.38 220.89 13.30 220.71 13.29L220.63 13.29L220.53 13.29C220.49 13.29 220.42 13.27 220.32 13.27C220.22 13.27 220.09 13.26 219.97 13.26L219.97 8.60C220.28 8.19 220.63 7.87 221.02 7.63C221.41 7.39 221.83 7.28 222.29 7.28C222.91 7.28 223.37 7.46 223.66 7.83C223.96 8.20 224.11 8.71 224.11 9.37L224.11 13.82L224.78 13.82L225.79 13.82L225.79 13.54C225.79 13.38 225.69 13.30 225.51 13.29ZM238.63 11.06C238.52 10.86 238.38 10.71 238.20 10.57C238.01 10.43 237.80 10.32 237.58 10.23C237.36 10.15 237.10 10.05 236.87 9.98C236.63 9.91 236.39 9.83 236.15 9.76C235.93 9.69 235.72 9.59 235.54 9.49C235.35 9.39 235.21 9.27 235.10 9.13C234.99 8.99 234.93 8.81 234.93 8.58C234.93 8.40 234.96 8.23 235.05 8.08C235.13 7.92 235.24 7.77 235.40 7.64C235.54 7.52 235.72 7.43 235.93 7.36C236.14 7.29 236.36 7.25 236.61 7.25C236.98 7.25 237.34 7.31 237.72 7.43C237.73 7.60 237.75 7.77 237.76 7.92C237.78 8.08 237.78 8.19 237.79 8.27C237.80 8.36 237.80 8.43 237.80 8.44C237.82 8.67 237.92 8.78 238.11 8.78L238.45 8.78L238.45 7.11C237.72 6.86 237.10 6.75 236.60 6.75C236.25 6.75 235.93 6.80 235.65 6.90C235.37 7.00 235.12 7.14 234.92 7.31C234.72 7.48 234.57 7.69 234.46 7.91C234.35 8.13 234.30 8.37 234.30 8.62C234.30 8.92 234.36 9.16 234.47 9.35C234.58 9.55 234.72 9.70 234.91 9.84C235.09 9.98 235.28 10.09 235.52 10.18C235.75 10.26 235.98 10.35 236.24 10.42C236.47 10.49 236.71 10.57 236.95 10.64C237.17 10.71 237.38 10.81 237.57 10.92C237.75 11.03 237.90 11.16 238.01 11.31C238.13 11.47 238.18 11.65 238.18 11.89C238.18 12.10 238.14 12.29 238.07 12.49C237.99 12.68 237.87 12.84 237.72 12.98C237.57 13.12 237.38 13.23 237.16 13.31C236.94 13.40 236.68 13.44 236.39 13.44C235.86 13.44 235.41 13.37 235.03 13.22C235.02 13.03 235.00 12.87 234.99 12.71C234.98 12.56 234.98 12.43 234.96 12.35C234.95 12.26 234.95 12.19 234.95 12.18C234.93 11.96 234.84 11.84 234.64 11.84L234.30 11.84L234.30 13.54C234.98 13.79 235.66 13.93 236.36 13.93C236.75 13.93 237.09 13.87 237.40 13.76C237.71 13.65 237.96 13.50 238.17 13.30C238.38 13.10 238.53 12.89 238.64 12.63C238.76 12.36 238.81 12.08 238.81 11.77C238.81 11.49 238.74 11.26 238.63 11.06ZM262.46 12.70C262.43 12.66 262.37 12.63 262.32 12.63C262.26 12.63 262.21 12.66 262.12 12.74C262.04 12.82 261.91 12.91 261.77 13.01C261.63 13.10 261.44 13.17 261.21 13.26C260.99 13.34 260.69 13.38 260.36 13.38C259.99 13.38 259.66 13.31 259.36 13.17C259.07 13.03 258.82 12.85 258.61 12.59C258.40 12.33 258.23 12.01 258.12 11.63C258.01 11.26 257.95 10.82 257.95 10.33C257.95 9.86 258.01 9.44 258.12 9.06C258.23 8.68 258.40 8.36 258.61 8.09C258.82 7.83 259.08 7.62 259.39 7.48C259.70 7.34 260.05 7.27 260.46 7.27C260.81 7.27 261.20 7.35 261.65 7.50C261.66 7.69 261.66 7.87 261.67 8.04C261.69 8.20 261.70 8.33 261.72 8.43C261.73 8.53 261.73 8.58 261.73 8.60C261.74 8.82 261.84 8.93 262.04 8.93L262.37 8.93L262.37 7.18L262.01 7.07C261.77 7.00 261.48 6.92 261.16 6.85C260.83 6.78 260.58 6.75 260.41 6.75C259.91 6.75 259.48 6.82 259.08 7.00C258.69 7.18 258.36 7.42 258.09 7.74C257.82 8.06 257.63 8.44 257.49 8.88C257.35 9.31 257.26 9.80 257.26 10.33C257.26 10.89 257.33 11.40 257.49 11.84C257.63 12.29 257.84 12.66 258.10 12.96C258.37 13.27 258.69 13.51 259.06 13.66C259.42 13.83 259.81 13.92 260.26 13.92C260.53 13.92 260.78 13.89 261.02 13.83C261.25 13.78 261.48 13.72 261.69 13.64C261.90 13.55 262.07 13.44 262.23 13.31C262.40 13.19 262.53 13.06 262.64 12.92ZM273.88 6.73C273.38 6.73 272.93 6.83 272.54 7.00C272.15 7.17 271.81 7.41 271.53 7.71C271.25 8.02 271.05 8.40 270.91 8.85C270.77 9.30 270.69 9.79 270.69 10.33C270.69 10.88 270.77 11.37 270.91 11.80C271.05 12.24 271.25 12.63 271.53 12.94C271.81 13.24 272.15 13.48 272.54 13.65C272.93 13.82 273.38 13.90 273.88 13.90C274.39 13.90 274.82 13.82 275.21 13.65C275.60 13.48 275.94 13.24 276.21 12.94C276.47 12.63 276.70 12.24 276.84 11.80C276.98 11.37 277.05 10.88 277.05 10.33C277.05 9.79 276.98 9.30 276.84 8.85C276.70 8.40 276.47 8.02 276.21 7.71C275.94 7.41 275.60 7.17 275.21 7.00C274.82 6.83 274.39 6.73 273.88 6.73ZM273.88 13.38C273.46 13.38 273.10 13.31 272.79 13.17C272.48 13.03 272.22 12.82 272.01 12.56C271.80 12.29 271.66 11.97 271.54 11.59C271.43 11.21 271.39 10.79 271.39 10.33C271.39 9.87 271.43 9.45 271.54 9.07C271.66 8.69 271.80 8.37 272.01 8.11C272.22 7.84 272.48 7.62 272.79 7.48C273.10 7.34 273.46 7.27 273.88 7.27C274.30 7.27 274.65 7.34 274.96 7.48C275.27 7.62 275.53 7.84 275.74 8.11C275.95 8.37 276.11 8.69 276.21 9.07C276.30 9.45 276.36 9.87 276.36 10.33C276.36 10.79 276.30 11.21 276.21 11.59C276.11 11.97 275.95 12.29 275.74 12.56C275.53 12.82 275.27 13.03 274.96 13.17C274.65 13.31 274.30 13.38 273.88 13.38ZM296.09 13.29L296.00 13.29L295.90 13.29C295.86 13.29 295.79 13.27 295.69 13.27C295.60 13.27 295.47 13.26 295.34 13.26L295.34 9.37C295.34 8.95 295.29 8.57 295.19 8.25C295.09 7.92 294.95 7.64 294.76 7.42C294.56 7.20 294.32 7.03 294.04 6.92C293.76 6.80 293.47 6.75 293.12 6.75C292.88 6.75 292.63 6.78 292.40 6.85C292.18 6.92 291.97 7.01 291.77 7.15C291.58 7.29 291.40 7.46 291.24 7.67C291.09 7.88 290.98 8.13 290.89 8.43C290.78 7.90 290.58 7.48 290.28 7.18C289.97 6.89 289.56 6.75 289.06 6.75C288.83 6.75 288.62 6.76 288.43 6.83C288.23 6.89 288.05 6.99 287.87 7.10C287.70 7.21 287.53 7.36 287.38 7.52C287.22 7.67 287.08 7.84 286.94 8.04L286.89 7.03C286.87 6.92 286.80 6.86 286.68 6.86L286.31 6.86L285.31 6.86L285.31 7.13C285.31 7.28 285.39 7.36 285.57 7.38L285.66 7.38C285.68 7.38 285.71 7.39 285.75 7.39L285.96 7.39C286.06 7.39 286.19 7.41 286.31 7.41L286.31 13.26C286.15 13.26 286.01 13.29 285.89 13.29L285.67 13.29L285.57 13.29C285.39 13.30 285.31 13.38 285.31 13.54L285.31 13.82L286.31 13.82L286.97 13.82L287.98 13.82L287.98 13.54C287.98 13.38 287.90 13.30 287.71 13.29L287.63 13.29L287.53 13.29C287.49 13.29 287.42 13.27 287.32 13.27C287.22 13.27 287.10 13.26 286.97 13.26L286.97 8.55C287.22 8.15 287.52 7.84 287.84 7.62C288.16 7.39 288.51 7.28 288.89 7.28C289.41 7.28 289.80 7.45 290.07 7.81C290.33 8.18 290.47 8.69 290.47 9.37L290.47 13.82L291.14 13.82L291.14 13.82L292.15 13.82L292.15 13.54C292.15 13.38 292.05 13.30 291.87 13.29L291.80 13.29L291.69 13.29C291.65 13.29 291.58 13.27 291.48 13.27C291.38 13.27 291.27 13.26 291.14 13.26L291.14 9.37C291.14 9.02 291.19 8.72 291.28 8.46C291.38 8.19 291.52 7.97 291.69 7.80C291.86 7.63 292.05 7.49 292.28 7.41C292.50 7.32 292.74 7.28 292.98 7.28C293.52 7.28 293.94 7.46 294.24 7.81C294.53 8.18 294.69 8.68 294.69 9.37L294.69 13.82L295.34 13.82L296.35 13.82L296.35 13.54C296.35 13.38 296.27 13.30 296.09 13.29ZM310.35 7.63C309.88 7.04 309.20 6.73 308.35 6.73C307.83 6.73 307.38 6.86 306.96 7.11C306.56 7.36 306.19 7.69 305.89 8.11L305.82 7.03C305.82 6.96 305.80 6.92 305.76 6.89C305.72 6.86 305.66 6.86 305.61 6.86L305.24 6.86L304.23 6.86L304.23 7.13C304.23 7.28 304.33 7.36 304.51 7.38L304.58 7.38C304.61 7.38 304.65 7.39 304.70 7.39L304.91 7.39C305.00 7.39 305.12 7.41 305.24 7.41L305.24 15.72C305.09 15.72 304.95 15.75 304.84 15.75L304.60 15.75L304.51 15.75C304.33 15.76 304.23 15.85 304.23 16.00L304.23 16.28L305.24 16.28L305.91 16.28L306.92 16.28L306.92 16.00C306.92 15.85 306.82 15.76 306.64 15.75L306.57 15.75L306.46 15.75C306.42 15.75 306.35 15.74 306.25 15.74C306.15 15.74 306.04 15.72 305.91 15.72L305.91 12.88C306.17 13.22 306.46 13.48 306.81 13.65C307.16 13.82 307.57 13.90 308.04 13.90C308.53 13.90 308.95 13.80 309.33 13.62C309.71 13.44 310.03 13.19 310.28 12.87C310.53 12.54 310.74 12.15 310.87 11.72C311.01 11.28 311.07 10.79 311.07 10.29C311.07 9.10 310.83 8.22 310.35 7.63ZM310.23 11.55C310.13 11.93 309.96 12.25 309.75 12.53C309.54 12.81 309.29 13.01 308.98 13.16C308.67 13.31 308.31 13.38 307.90 13.38C307.48 13.38 307.12 13.30 306.80 13.13C306.47 12.96 306.18 12.70 305.91 12.29L305.91 8.64C306.21 8.20 306.53 7.87 306.91 7.63C307.29 7.39 307.71 7.28 308.17 7.28C308.88 7.28 309.43 7.52 309.81 8.01C310.18 8.50 310.38 9.25 310.38 10.29C310.38 10.75 310.34 11.17 310.23 11.55ZM324.91 13.29L324.81 13.29L324.59 13.29C324.49 13.29 324.38 13.27 324.27 13.27L324.27 9.28C324.27 8.89 324.23 8.55 324.13 8.23C324.03 7.91 323.89 7.64 323.71 7.42C323.53 7.20 323.29 7.03 323.01 6.92C322.73 6.79 322.41 6.73 322.03 6.73C321.52 6.73 321.08 6.83 320.67 7.01C320.26 7.20 319.89 7.48 319.52 7.84L319.63 8.05C319.68 8.13 319.75 8.18 319.84 8.18C319.91 8.18 320.01 8.12 320.11 8.02C320.21 7.92 320.35 7.84 320.52 7.73C320.68 7.62 320.87 7.52 321.10 7.42C321.34 7.32 321.62 7.28 321.96 7.28C322.50 7.28 322.92 7.45 323.20 7.80C323.48 8.15 323.61 8.64 323.61 9.28L323.61 10.01C322.83 10.02 322.15 10.09 321.59 10.21C321.03 10.32 320.57 10.47 320.21 10.65C319.84 10.84 319.59 11.06 319.42 11.31C319.26 11.56 319.17 11.83 319.17 12.12C319.17 12.45 319.23 12.73 319.33 12.95C319.44 13.17 319.58 13.36 319.75 13.50C319.91 13.64 320.12 13.75 320.35 13.82C320.57 13.89 320.80 13.93 321.03 13.93C321.31 13.93 321.58 13.90 321.82 13.85C322.06 13.79 322.27 13.71 322.48 13.61C322.69 13.51 322.88 13.38 323.08 13.23C323.26 13.08 323.44 12.91 323.64 12.73L323.74 13.62C323.76 13.75 323.86 13.82 324.00 13.82L324.02 13.82L324.27 13.82L325.19 13.82L325.19 13.54C325.19 13.38 325.09 13.30 324.91 13.29ZM323.61 12.26C323.44 12.43 323.29 12.60 323.12 12.74C322.95 12.88 322.77 13.01 322.57 13.12C322.38 13.23 322.17 13.30 321.94 13.36C321.72 13.41 321.47 13.44 321.20 13.44C321.02 13.44 320.84 13.43 320.67 13.37C320.50 13.31 320.36 13.24 320.24 13.13C320.11 13.02 320.00 12.88 319.93 12.71C319.84 12.54 319.82 12.35 319.82 12.11C319.82 11.86 319.89 11.63 320.04 11.44C320.19 11.24 320.42 11.09 320.73 10.95C321.03 10.81 321.43 10.70 321.90 10.61C322.38 10.53 322.95 10.47 323.61 10.46ZM340.73 13.29L340.66 13.29L340.55 13.29C340.51 13.29 340.44 13.27 340.34 13.27C340.24 13.27 340.13 13.26 340.00 13.26L340.00 9.37C340.00 8.96 339.95 8.60 339.85 8.27C339.75 7.95 339.61 7.67 339.42 7.45C339.22 7.22 338.98 7.06 338.69 6.93C338.39 6.80 338.06 6.75 337.68 6.75C337.16 6.75 336.69 6.87 336.27 7.11C335.85 7.36 335.48 7.67 335.16 8.08L335.10 7.03C335.09 6.92 335.02 6.86 334.89 6.86L334.53 6.86L333.52 6.86L333.52 7.13C333.52 7.28 333.61 7.36 333.79 7.38L333.87 7.38C333.90 7.38 333.93 7.39 333.97 7.39L334.18 7.39C334.28 7.39 334.40 7.41 334.53 7.41L334.53 13.26C334.36 13.26 334.22 13.29 334.11 13.29L333.89 13.29L333.79 13.29C333.61 13.30 333.52 13.38 333.52 13.54L333.52 13.82L334.53 13.82L335.19 13.82L336.20 13.82L336.20 13.54C336.20 13.38 336.11 13.30 335.93 13.29L335.85 13.29L335.75 13.29C335.71 13.29 335.64 13.27 335.54 13.27C335.44 13.27 335.31 13.26 335.19 13.26L335.19 8.60C335.50 8.19 335.85 7.87 336.24 7.63C336.63 7.39 337.05 7.28 337.51 7.28C338.13 7.28 338.59 7.46 338.88 7.83C339.18 8.20 339.33 8.71 339.33 9.37L339.33 13.82L340.00 13.82L341.01 13.82L341.01 13.54C341.01 13.38 340.91 13.30 340.73 13.29ZM355.64 6.86L355.12 6.86L353.72 6.86L353.72 7.13C353.72 7.28 353.82 7.36 354.00 7.38L354.07 7.38C354.10 7.38 354.13 7.39 354.17 7.39L354.38 7.39C354.48 7.39 354.59 7.41 354.72 7.41L352.58 12.45L352.49 12.66C352.46 12.73 352.45 12.80 352.42 12.87C352.41 12.80 352.37 12.73 352.35 12.66C352.32 12.59 352.31 12.52 352.28 12.45L350.11 7.41C350.27 7.41 350.41 7.39 350.52 7.39C350.63 7.39 350.71 7.38 350.74 7.38L350.83 7.38C351.01 7.36 351.11 7.28 351.11 7.13L351.11 6.86L349.69 6.86L349.69 6.86L349.13 6.86L348.67 6.86L348.67 7.13C348.67 7.28 348.77 7.36 348.95 7.38C348.95 7.38 349.09 7.38 349.37 7.39L352.09 13.57L350.85 16.28L351.33 16.28C351.41 16.28 351.48 16.25 351.53 16.21C351.57 16.17 351.61 16.13 351.64 16.06L355.40 7.39L355.66 7.39C355.74 7.39 355.78 7.38 355.81 7.38L355.88 7.38C356.06 7.36 356.16 7.28 356.16 7.13L356.16 6.86Z"></path></g></svg>